<svg width="53" height="54" viewBox="0 0 53 54" fill="none" xmlns="http://www.w3.org/2000/svg">
  <path d="M28.8623 13.4051C28.7331 13.426 28.724 13.4119 28.7522 13.2943C28.4772 13.1267 28.4926 12.7795 28.2631 12.5808C28.3471 12.5553 28.389 12.5427 28.4311 12.5299C28.4296 12.5145 28.4288 12.4983 28.427 12.4824C28.3735 12.4849 28.3194 12.4867 28.2243 12.4906C28.1844 12.4231 28.1222 12.3192 28.052 12.201C28.0188 12.161 27.968 12.1042 27.9222 12.0421C27.9047 12.0173 27.909 11.9651 27.889 11.9539C27.64 11.8153 27.5032 11.5733 27.356 11.3382C27.3443 11.3201 27.3034 11.2836 27.283 11.2714C27.0934 11.1521 26.9898 10.9676 26.8926 10.771C26.8605 10.7064 26.7788 10.6695 26.7366 10.6071C26.6311 10.4543 26.5427 10.2879 26.4326 10.139C26.3693 10.054 26.2647 10.0023 26.2004 9.91766C26.015 9.67676 25.8438 9.42361 25.6609 9.18121C25.5893 9.08642 25.4925 9.01288 25.4223 8.91758C25.3622 8.83512 25.323 8.73566 25.2721 8.63838C25.1519 8.68764 24.7154 8.27497 24.6707 8.03305C24.6239 8.0264 24.5748 8.03478 24.5492 8.01224C24.4358 7.91375 24.3283 7.80791 24.2226 7.69994C24.2 7.67652 24.1943 7.63464 24.1951 7.63687C24.0262 7.50053 23.8723 7.37676 23.7442 7.27315C23.7698 7.16149 23.788 7.08473 23.8105 6.9891C23.7696 7.00498 23.7378 7.01672 23.7073 7.03155C23.6625 7.05304 23.6196 7.07614 23.5757 7.09899C23.5654 7.02253 23.548 6.94637 23.5489 6.87109C23.5495 6.83971 23.588 6.81044 23.5913 6.75585C23.5271 6.79508 23.4631 6.83356 23.376 6.88695C22.868 6.34216 22.3478 5.78293 21.8091 5.2051C21.8712 5.17295 21.9148 5.15085 21.9824 5.11606C21.9361 5.0732 21.8963 5.01206 21.8431 4.99306C21.7087 4.94468 21.6838 4.80445 21.6074 4.70237C21.5513 4.73299 21.5038 4.7586 21.4499 4.78635C21.4505 4.77084 21.4514 4.74851 21.4512 4.72619C21.4407 4.73817 21.4298 4.75113 21.4199 4.76372C21.3607 4.70755 21.3017 4.6515 21.2427 4.59544L21.2699 4.56129C21.3176 4.56805 21.3649 4.5737 21.4253 4.58237C21.3666 4.472 21.3063 4.46978 21.2063 4.47488C21.1099 4.48033 20.9929 4.40828 20.9073 4.3395C20.7024 4.17562 20.5171 3.98371 20.3119 3.81846C19.8878 3.47851 19.4463 3.16309 19.0317 2.8113C18.8179 2.62974 18.5806 2.4952 18.3594 2.33031C18.344 2.31875 18.3325 2.30009 18.2975 2.25815C18.4024 2.27472 18.4773 2.28627 18.6028 2.30606C18.5086 2.21067 18.4561 2.133 18.3847 2.08918C18.0787 1.89816 17.7696 1.71051 17.456 1.53542C17.0335 1.29789 16.6043 1.07368 16.1801 0.840753C16.1276 0.812068 16.0827 0.7687 16.0262 0.675922C16.1296 0.648474 16.2391 0.583409 16.3363 0.600894C16.5383 0.638545 16.7383 0.70957 16.9316 0.78808C17.1323 0.870385 17.3226 0.981778 17.5195 1.07403C17.9301 1.26773 18.3418 1.45621 18.7535 1.64742C18.8773 1.70529 19.0051 1.75669 19.1246 1.82513C19.3395 1.95 19.5482 2.08819 19.7615 2.2168C19.8536 2.27214 19.9539 2.31342 20.0466 2.37C20.4018 2.58799 20.7705 2.7858 21.1065 3.03442C21.5845 3.38829 22.0457 3.76943 22.4994 4.15769C22.9 4.49965 23.28 4.86879 23.6719 5.22358C23.8318 5.36841 24.0133 5.4899 24.16 5.64833C24.4752 5.98885 24.8556 6.24165 25.1995 6.54243C25.5109 6.81465 25.8426 7.06292 26.1414 7.34911C26.4583 7.65155 26.7503 7.98416 27.0461 8.31018C27.2298 8.51252 27.4007 8.72747 27.5766 8.93768C27.8938 9.31639 28.1877 9.71993 28.5328 10.0676C29.0082 10.5476 29.3659 11.1189 29.7532 11.6673C29.886 11.8555 29.9873 12.0674 30.1236 12.2516C30.4076 12.6373 30.7174 13.003 30.9933 13.3947C31.1444 13.6086 31.2414 13.8627 31.3761 14.0896C31.43 14.1801 31.4832 14.2655 31.5316 14.3606C31.6741 14.6425 31.873 14.8931 32.0329 15.1663C32.3997 15.7959 32.7646 16.4263 33.1134 17.0661C33.2627 17.3393 33.3639 17.6388 33.5 17.9193C33.5708 18.0645 33.6798 18.1897 33.7525 18.3343C33.8357 18.498 33.894 18.6757 33.971 18.8435C34.0914 19.1057 34.223 19.3617 34.3421 19.6241C34.575 20.1351 34.8151 20.6436 35.0291 21.1636C35.1711 21.5079 35.3027 21.8638 35.3821 22.226C35.426 22.4286 35.5251 22.5886 35.5959 22.77C35.7261 23.1029 35.8809 23.4325 35.963 23.7779C36.0468 24.1312 36.1958 24.456 36.2993 24.7993C36.3573 24.9917 36.4786 25.174 36.4987 25.3662C36.5158 25.5369 36.5659 25.7013 36.5939 25.8653C36.6333 26.0942 36.7692 26.3062 36.7568 26.5588C36.7531 26.6382 36.835 26.7217 36.8459 26.8067C36.8862 27.1176 37.0255 27.4008 37.0851 27.7057C37.1646 28.1079 37.2711 28.5053 37.3547 28.9068C37.4127 29.1851 37.4494 29.4674 37.499 29.7469C37.5732 30.1631 37.6564 30.579 37.725 30.9961C37.7646 31.2354 37.7816 31.4769 37.8128 31.7174C37.8433 31.9588 37.8798 32.1993 37.9093 32.4408C37.9149 32.4872 37.9047 32.5346 37.9011 32.5818C37.8972 32.6418 37.8709 32.7141 37.8944 32.7603C37.9932 32.9532 37.975 33.1639 38.0026 33.3649C38.0623 33.8004 38.1077 34.2378 38.14 34.6749C38.1621 34.9765 38.1513 35.2804 38.1606 35.5831C38.163 35.6488 38.2004 35.7133 38.2061 35.7801C38.2337 36.1362 38.258 36.4916 38.2793 36.8482C38.2969 37.1439 38.3143 37.4394 38.3243 37.7345C38.3344 38.0476 38.3403 38.3613 38.3378 38.6744C38.3368 38.8336 38.3047 38.9909 38.2995 39.1492C38.2924 39.3915 38.2971 39.6352 38.296 39.8777C38.2949 40.1312 38.3036 40.3855 38.2895 40.6379C38.2645 41.1004 38.234 41.5634 38.1904 42.0237C38.1427 42.5281 38.0752 43.0289 38.0208 43.5317C37.995 43.7762 37.9869 44.0247 37.9579 44.2684C37.9344 44.471 37.8878 44.6698 37.8592 44.8715C37.8407 44.999 37.8386 45.13 37.8229 45.258C37.795 45.4747 37.7167 45.6945 37.7397 45.9068C37.7834 46.3137 37.6174 46.6752 37.6031 47.0662C37.6007 47.1207 37.5659 47.1722 37.5748 47.2431C37.6406 47.1353 37.7113 47.0303 37.7708 46.9183C37.9182 46.6423 38.061 46.3633 38.2031 46.0849C38.3604 45.7753 38.5228 45.4683 38.6685 45.1527C38.8433 44.777 38.9985 44.3905 39.17 44.0124C39.328 43.6626 39.4882 43.3138 39.6616 42.9735C39.8159 42.6709 39.99 42.3799 40.1549 42.0833C40.2776 41.8634 40.3913 41.6377 40.5255 41.4255C40.5911 41.3222 40.6926 41.2447 40.7861 41.1465C40.8188 41.1587 40.8668 41.1775 40.8899 41.1857C40.9536 41.137 40.9958 41.0993 41.044 41.0749C41.0516 41.0715 41.1079 41.1317 41.1091 41.1639C41.111 41.2185 41.088 41.2733 41.0679 41.3562C41.0758 41.3642 41.1096 41.3988 41.165 41.457C41.1742 41.3729 41.1815 41.3072 41.1917 41.2208C41.2222 41.22 41.2657 41.2183 41.3301 41.215C41.2978 41.3299 41.2713 41.4235 41.242 41.5268C41.3143 41.5425 41.3808 41.5571 41.4359 41.5698C41.4535 41.6877 41.4698 41.7913 41.4833 41.8804C41.5937 41.9286 41.7397 41.9644 41.8561 42.048C42.0151 42.1628 42.0194 42.3361 41.9252 42.5069C41.803 42.728 41.6963 42.9582 41.5794 43.1832C41.4716 43.3912 41.3539 43.5936 41.2506 43.8043C41.1537 44.0015 41.0756 44.2092 40.979 44.4077C40.8944 44.5814 40.7954 44.7471 40.7036 44.9165C40.5667 45.1671 40.4269 45.4163 40.2942 45.6694C40.1439 45.9567 39.9914 46.243 39.8568 46.5392C39.6892 46.9072 39.543 47.2863 39.38 47.6557C39.2745 47.8956 39.1531 48.1266 39.0404 48.3628C38.9155 48.6227 38.7902 48.8811 38.669 49.1425C38.5402 49.4214 38.4175 49.7046 38.2882 49.9841C38.1164 50.3556 37.9457 50.7265 37.7672 51.0947C37.6771 51.2808 37.5612 51.4524 37.4748 51.6403C37.3732 51.861 37.301 52.0976 37.1981 52.3167C37.1275 52.4683 37.0392 52.6154 36.9339 52.7407C36.8393 52.8542 36.7353 52.7603 36.6346 52.6978C36.4997 52.6138 36.3732 52.4882 36.1842 52.5281C36.1879 52.5708 36.1911 52.6104 36.1951 52.6502C36.1874 52.6536 36.1798 52.6564 36.1722 52.6598C36.1618 52.6387 36.1522 52.6183 36.1351 52.5836C36.0808 52.649 36.0295 52.7116 35.9968 52.7502C35.8713 52.7426 35.7624 52.721 35.6572 52.7319C35.403 52.7588 35.1578 52.7295 34.9313 52.5932C34.88 52.5624 34.8136 52.4803 34.8197 52.4335C34.8354 52.3123 34.7645 52.2915 34.694 52.2372C34.6203 52.18 34.5702 52.0868 34.5126 52.0074C34.5108 52.0055 34.5403 51.9781 34.5324 51.9862C34.445 51.8812 34.3427 51.7854 34.2717 51.6696C34.1385 51.4536 33.954 51.2852 33.8024 51.0892C33.5448 50.7569 33.2196 50.5192 32.9018 50.2699C32.5661 50.0065 32.2074 49.7776 31.8714 49.515C31.6262 49.3241 31.3998 49.1054 31.1682 48.8947C30.7835 48.5423 30.4106 48.175 30.0151 47.8375C29.7955 47.6502 29.5409 47.5109 29.3031 47.3466C29.1142 47.2158 28.9286 47.081 28.7454 46.9513C28.8521 46.6907 28.8877 46.6803 29.1743 46.7481C29.2041 46.7469 29.234 46.7455 29.3039 46.7423C29.2275 46.6792 29.1792 46.639 29.1254 46.5938C29.1303 46.5759 29.1338 46.5537 29.1439 46.5348C29.3009 46.2259 29.2519 46.0779 28.9339 45.9061C28.8485 45.8596 28.7466 45.8248 28.7475 45.6978C28.7484 45.6475 28.7715 45.5966 28.7909 45.5481C28.808 45.5042 28.8399 45.4661 28.8526 45.4208C28.9311 45.1512 29.0907 45.0406 29.3782 45.0574C29.9231 45.0896 30.4045 45.3043 30.8426 45.6523C30.9093 45.705 30.9757 45.7648 31.0514 45.7953C31.1732 45.8437 31.1952 45.9724 31.2703 46.0571C31.3268 46.121 31.3592 46.1969 31.4626 46.1333C31.4884 46.117 31.559 46.1613 31.5964 46.1935C31.6066 46.2024 31.5758 46.267 31.5535 46.3408C31.6266 46.3484 31.7102 46.334 31.7638 46.3696C31.8573 46.4324 31.9373 46.5223 32.0151 46.6083C32.3268 46.9528 32.6331 47.3016 32.9478 47.644C33.0382 47.742 33.1515 47.8167 33.2495 47.9073C33.4442 48.0867 33.6316 48.2739 33.8294 48.4499C33.9214 48.5323 34.0328 48.5903 34.1299 48.6677C34.1516 48.6851 34.1489 48.7355 34.1573 48.7714C34.1453 48.7848 34.133 48.7967 34.1211 48.8101C34.1821 48.8264 34.2446 48.8383 34.3034 48.8626C34.3237 48.8712 34.3285 48.9172 34.3477 48.9382C34.3773 48.9717 34.4094 49.0103 34.4478 49.0263C34.5745 49.0802 34.6898 49.1334 34.7021 49.307C34.7064 49.3704 34.7386 49.4146 34.8294 49.4084C34.9728 49.3993 35.0655 49.5411 35.0093 49.7128C35.1211 49.6666 35.2063 49.6317 35.2911 49.5966C35.2737 49.5895 35.2566 49.5817 35.2394 49.5747C35.2447 49.5117 35.2505 49.4493 35.2555 49.387C35.2664 49.252 35.2472 49.1007 35.2965 48.9856C35.3626 48.8344 35.3078 48.6418 35.4546 48.5155C35.4975 48.4783 35.4632 48.3488 35.4748 48.2632C35.4844 48.195 35.512 48.1298 35.5344 48.0515C35.5344 48.0515 35.4928 48.0348 35.493 48.0303C35.5313 47.8448 35.5819 47.6616 35.613 47.4743C35.6366 47.3312 35.6287 47.182 35.649 47.0378C35.6743 46.8575 35.7163 46.6803 35.7466 46.5008C35.7592 46.425 35.7611 46.3475 35.7788 46.2741C35.788 46.1209 35.7923 45.9667 35.8069 45.8144C35.824 45.6391 35.847 45.4643 35.8776 45.2922C35.8839 45.2556 35.939 45.2007 35.9644 45.2055C36.0065 45.213 36.0428 45.262 36.1079 45.3167C36.2603 45.2689 36.1499 45.0923 36.2061 44.9859C36.1865 44.9817 36.1678 44.9776 36.1484 44.9731C36.1422 45.0302 36.1365 45.0863 36.1303 45.1413C36.0696 45.1215 36 45.0977 35.923 45.0723C35.8627 44.8622 35.8815 44.6528 35.9582 44.4321C36.0011 44.309 35.9532 44.1484 35.9532 44.0054C35.9534 43.9647 35.9864 43.9253 35.9915 43.8835C36.0096 43.7421 36.0221 43.5994 36.0266 43.4548C36.0341 43.3479 36.0394 43.2404 36.0496 43.1331C36.0738 42.8765 36.1016 42.6208 36.1248 42.3645C36.1476 42.1063 36.1689 41.8482 36.1847 41.59C36.1914 41.4806 36.1807 41.3689 36.1829 41.2581C36.1857 41.0745 36.2074 40.8906 36.1926 40.7083C36.1816 40.5706 36.1896 40.4423 36.1995 40.3062C36.2346 39.8285 36.2333 39.3465 36.2402 38.8665C36.2437 38.6592 36.2285 38.4518 36.2315 38.2452C36.2323 38.1802 36.2646 38.117 36.2875 38.0356C36.1659 37.8641 36.221 37.6446 36.2023 37.4346C36.186 37.2485 36.1461 37.0629 36.1373 36.877C36.1134 36.3602 36.0984 35.8423 36.0842 35.3256C36.0798 35.1846 36.1341 35.0192 36.0792 34.909C35.9892 34.7287 36.094 34.5678 36.048 34.3881C36.0068 34.2283 36.0081 34.034 35.9608 33.8694C35.9005 33.6573 35.8896 33.4521 35.8902 33.2388C35.8903 33.1204 35.8647 33.002 35.849 32.8838C35.8236 32.7038 35.7939 32.5249 35.7704 32.3446C35.7527 32.208 35.7497 32.0687 35.7264 31.9329C35.7016 31.7918 35.6523 31.6546 35.6288 31.5123C35.6032 31.3559 35.6007 31.1945 35.5765 31.0379C35.5518 30.8792 35.4955 30.723 35.4849 30.5641C35.469 30.3175 35.3826 30.0894 35.3342 29.852C35.2998 29.6828 35.3188 29.503 35.3033 29.3286C35.2964 29.253 35.255 29.1809 35.2422 29.1041C35.2267 29.0095 35.2303 28.9115 35.2131 28.8166C35.198 28.7331 35.1858 28.6371 35.1389 28.5735C34.9556 28.3251 34.9707 28.0203 34.8905 27.7438C34.7839 27.3768 34.7232 26.9973 34.624 26.6276C34.5507 26.3561 34.4461 26.0926 34.3588 25.8243C34.3413 25.7691 34.344 25.7078 34.3341 25.6488C34.3277 25.6124 34.325 25.5675 34.3042 25.5422C34.1944 25.4094 34.2168 25.244 34.1749 25.0978C34.1425 24.9842 34.2082 24.8505 34.0904 24.7412C34.0087 24.6662 33.9349 24.5232 33.9377 24.4154C33.9427 24.2201 33.8132 24.0976 33.7615 23.9369C33.649 23.5882 33.5181 23.2448 33.4185 22.8926C33.3603 22.6879 33.2919 22.4782 33.1619 22.2611C33.1167 22.1853 33.1058 22.0882 33.0725 22.0035C32.9508 21.7021 32.8229 21.4026 32.7052 21.1002C32.617 20.8749 32.5417 20.6441 32.4589 20.4167C32.4268 20.3272 32.3855 20.2407 32.3584 20.1498C32.3447 20.106 32.3656 20.05 32.3499 20.0088C32.3264 19.9506 32.3407 19.883 32.2508 19.8388C32.1716 19.8001 32.1254 19.6739 32.0727 19.5813C32.0128 19.4757 31.9582 19.3666 31.9066 19.2568C31.7686 18.9625 31.6322 18.6663 31.4976 18.3698C31.3867 18.1274 31.2777 17.8839 31.1683 17.6402C31.1933 17.6338 31.2151 17.6282 31.2434 17.6205C31.2287 17.6011 31.2234 17.5871 31.2181 17.5872C31.1193 17.5874 31.0973 17.5217 31.1008 17.4365C31.101 17.4274 31.1181 17.4131 31.1166 17.4105C31.0454 17.3187 30.9731 17.2281 30.9008 17.1373C30.8973 17.1327 30.8877 17.1305 30.8876 17.1287C30.8949 16.882 30.6334 16.8008 30.5774 16.5707C30.5293 16.3696 30.361 16.1992 30.2583 16.0091C30.2026 15.9045 30.1773 15.7835 30.1266 15.6754C30.0985 15.6157 30.0396 15.5716 30.0065 15.5133C29.8821 15.2932 29.7612 15.0716 29.6406 14.8489C29.5673 14.7134 29.5161 14.5578 29.418 14.4465C29.3329 14.3503 29.2106 14.295 29.2412 14.1759C29.1623 14.0957 29.0683 14.0448 29.0523 13.9754C29.0096 13.792 28.7814 13.6494 28.9177 13.4185C28.8996 13.415 28.8794 13.4102 28.8592 13.4062C28.8998 13.3883 28.9405 13.3702 28.9894 13.3481C29.0012 13.3882 29.0151 13.4333 29.0297 13.4798C29.0364 13.5294 29.0269 13.6022 29.054 13.6233C29.1021 13.662 29.1721 13.668 29.2328 13.6881C29.2363 13.674 29.2389 13.6599 29.2424 13.6458C29.1929 13.5742 29.1423 13.5021 29.0931 13.4297C28.9863 13.2753 28.8794 13.1217 28.7726 12.9672C28.7762 13.0521 28.8118 13.1175 28.8307 13.1883C28.85 13.2582 28.8519 13.3331 28.862 13.4058L28.8623 13.4051ZM24.6614 7.78606C24.663 7.8395 24.6633 7.8932 24.6636 7.89704C24.7592 7.96452 24.8353 8.01835 24.9118 8.07119C24.9487 8.0965 24.9863 8.12057 25.0236 8.14514C25.008 8.09092 25.0082 8.01526 24.9745 7.98857C24.8754 7.9102 24.7622 7.85226 24.6556 7.78672C24.6864 7.78305 24.7176 7.7795 24.7789 7.77316C24.6887 7.69076 24.6182 7.6261 24.5185 7.53521C24.5141 7.63855 24.5121 7.70417 24.5107 7.73208C24.5819 7.75817 24.621 7.77268 24.6604 7.78644L24.6614 7.78606ZM27.3757 11.0489C27.4002 11.1269 27.4256 11.2056 27.4447 11.2671C27.5086 11.2757 27.5721 11.2851 27.6209 11.2915C27.6333 11.3691 27.6428 11.4324 27.6558 11.5148C27.7588 11.3679 27.7033 11.2388 27.4862 11.0647C27.3946 10.8365 27.2651 10.7361 27.2094 10.7946C27.2683 10.8838 27.3217 10.9665 27.3761 11.05L27.3757 11.0489ZM34.812 51.6086C34.8138 51.5655 34.8374 51.5014 34.816 51.4665C34.7654 51.3833 34.7064 51.2923 34.6294 51.2426C34.458 51.1308 34.3919 50.9113 34.1957 50.8173C34.0877 50.7657 34.0156 50.6235 33.9215 50.5151C33.8121 50.6597 33.8462 50.7465 33.9567 50.8216C33.9793 50.8368 33.9996 50.8594 34.0172 50.8821C34.2563 51.1977 34.4941 51.5144 34.726 51.8217C34.7653 51.8336 34.8104 51.8464 34.8554 51.8612C34.8569 51.862 34.8532 51.8805 34.8517 51.898L34.7603 51.8512C34.7675 51.9057 34.7607 51.9561 34.7803 51.9883C34.8603 52.1205 34.9394 52.2553 35.0366 52.3726C35.0745 52.4179 35.159 52.4298 35.223 52.4339C35.2366 52.4351 35.2533 52.3357 35.2673 52.2816C35.2701 52.2712 35.2633 52.2537 35.2686 52.2482C35.2847 52.2315 35.3052 52.2189 35.3241 52.2045C35.3042 52.187 35.284 52.17 35.2652 52.1522C35.2374 52.126 35.2105 52.0983 35.183 52.0714C35.1591 52.0081 35.0992 51.9783 35.0692 51.9289C35.0087 51.8295 34.9684 51.7164 34.9084 51.6157C34.8978 51.5972 34.8376 51.609 34.8105 51.6079L34.812 51.6086ZM30.517 47.7931C30.5495 47.8569 30.5681 47.9303 30.613 47.9743C30.7765 48.1331 30.945 48.2884 31.1215 48.4295C31.1614 48.4621 31.2433 48.4356 31.3065 48.4357C31.298 48.3814 31.3072 48.2991 31.2784 48.278C31.1387 48.1788 31.1213 47.9395 30.9133 47.9238C30.907 47.9233 30.9019 47.9088 30.8962 47.901C30.8338 47.8286 30.777 47.7488 30.7063 47.6867C30.6738 47.6579 30.6132 47.664 30.5555 47.6518C30.5728 47.7163 30.585 47.7594 30.5969 47.8054C30.5679 47.8006 30.5428 47.7971 30.5173 47.7923L30.517 47.7931ZM33.3279 50.1569C33.3425 50.1476 33.357 50.1386 33.3722 50.1306C33.3514 50.0904 33.3409 50.0352 33.3095 50.0133C33.243 49.9683 33.1548 49.9545 33.0949 49.9026C33.0169 49.835 32.9579 49.7421 32.8905 49.6604C32.8741 49.6779 32.8577 49.6945 32.8413 49.7119C32.9583 49.9124 33.116 50.0661 33.3276 50.1577L33.3279 50.1569Z" fill="white" />
</svg>