<svg width="50" height="59" viewBox="0 0 50 59" fill="none" xmlns="http://www.w3.org/2000/svg">
  <mask id="mask0_71_22" style="mask-type:luminance" maskUnits="userSpaceOnUse" x="0" y="0" width="62" height="59">
    <path d="M0.225342 58.1066L60.8635 58.6338L61.363 1.18607L0.724877 0.65879L0.225342 58.1066Z" fill="white" />
  </mask>
  <g mask="url(#mask0_71_22)">
    <path d="M3.4823 0.684747C1.57805 5.12066 -0.0400116 9.44731 1.05873 13.628C2.01956 17.2851 5.14879 20.5483 9.64436 22.5802C12.581 23.9071 15.7736 24.6547 18.8628 25.3781C20.7342 25.8162 22.6704 26.2702 24.5311 26.8474C28.7626 28.1628 34.2494 30.8097 36.3614 35.9601C37.3175 38.2906 37.4588 40.8979 37.5954 43.4182C37.7488 46.252 37.9079 49.1833 39.2318 51.7143C40.9069 54.9195 44.5235 57.3253 48.908 58.1509C52.8727 58.897 56.9254 58.4274 60.8453 57.9734L60.8299 57.8367C56.9211 58.2895 52.8782 58.7579 48.934 58.0162C44.5922 57.1991 41.0113 54.8197 39.3552 51.652C38.0461 49.1459 37.8882 46.231 37.735 43.4113C37.5969 40.8798 37.4556 38.2614 36.49 35.909C34.3581 30.7084 28.8327 28.0405 24.5737 26.7168C22.7088 26.1382 20.7713 25.6842 18.897 25.2445C15.8146 24.5227 12.6288 23.7768 9.70492 22.4552C5.24775 20.4404 2.14568 17.2104 1.19528 13.5933C0.10891 9.45547 1.71827 5.15226 3.61284 0.739467L3.48622 0.684781L3.4823 0.684747Z" fill="#100F0D" />
  </g>
  <mask id="mask1_71_22" style="mask-type:luminance" maskUnits="userSpaceOnUse" x="7" y="0" width="55" height="52">
    <path d="M7.14258 51.3915L60.7551 51.8577L61.1957 1.18463L7.5832 0.718441L7.14258 51.3915Z" fill="white" />
  </mask>
  <g mask="url(#mask1_71_22)">
    <path d="M9.89315 0.808167C8.36129 4.27788 6.81903 8.3046 7.92128 12.1945C8.28803 13.4923 8.95008 14.7226 9.89042 15.8519C11.2783 17.5185 13.2459 18.9462 15.5796 19.98C18.1689 21.1278 20.9817 21.7741 23.701 22.3976L24.2116 22.5151C25.6663 22.8505 27.2115 23.2156 28.7024 23.6726C31.6975 24.588 35.7622 26.3743 38.1092 29.6876C38.5368 30.2925 38.8982 30.9354 39.1832 31.5986C40.0632 33.6539 40.2307 35.9621 40.392 38.1945C40.5702 40.6548 40.7536 43.1977 41.8926 45.4125C42.2522 46.1119 42.7081 46.7749 43.2504 47.3837C44.9191 49.2597 47.4027 50.6382 50.2461 51.2641C53.7544 52.0432 57.4829 51.6992 60.7033 51.3149L60.6865 51.1782C57.4772 51.5613 53.7625 51.9041 50.2751 51.1291C47.4604 50.509 45.0027 49.146 43.3532 47.2908C42.8193 46.6906 42.3698 46.0371 42.016 45.3485C40.8905 43.1587 40.707 40.6298 40.5299 38.1849C40.3671 35.9414 40.1984 33.6217 39.3108 31.5445C39.0229 30.8718 38.6561 30.2204 38.2229 29.6072C35.8528 26.2621 31.7593 24.4614 28.7434 23.539C27.2473 23.0819 25.6991 22.7156 24.2432 22.3801L23.7325 22.2626C21.0188 21.6394 18.2141 20.9946 15.636 19.8524C13.3215 18.8269 11.3717 17.4131 9.99738 15.7633C9.07064 14.6492 8.4166 13.4355 8.05557 12.1568C6.96502 8.31142 8.49757 4.31207 10.0194 0.864157L9.89283 0.808164L9.89315 0.808167Z" fill="#100F0D" />
  </g>
  <path d="M16.3036 0.931107C15.0346 3.70291 13.7151 7.32608 14.7857 10.7606C15.1302 11.8735 15.7236 12.9239 16.5498 13.8813C17.7742 15.2969 19.4915 16.506 21.5149 17.3771C23.7584 18.3454 26.1888 18.889 28.5407 19.4156L28.9907 19.5162C30.2446 19.7973 31.5766 20.1053 32.8763 20.4943C36.5882 21.6035 39.4161 23.3712 41.0542 25.6053C41.4317 26.1203 41.7523 26.6691 42.0095 27.2352C42.8157 29.0184 43.0093 31.0318 43.1975 32.9776C43.3987 35.0587 43.6061 37.2117 44.559 39.1063C44.8655 39.7144 45.2492 40.2941 45.7024 40.8273C47.1041 42.4821 49.1947 43.7412 51.5884 44.3743C54.7305 45.2178 58.0367 44.9666 60.5654 44.6549L60.5486 44.5182C58.0323 44.8299 54.7441 45.0801 51.6242 44.242C49.2579 43.6163 47.1919 42.3737 45.808 40.74C45.3617 40.2137 44.9834 39.6435 44.6824 39.0453C43.7417 37.1743 43.5355 35.035 43.3355 32.9663C43.1474 31.0082 42.951 28.9836 42.1354 27.1798C41.8754 26.6038 41.5496 26.0468 41.1666 25.525C39.5108 23.2659 36.6582 21.4816 32.9173 20.3623C31.6137 19.972 30.2774 19.6637 29.0222 19.3825L28.5722 19.2822C26.2272 18.757 23.8023 18.2148 21.5712 17.2521C19.567 16.3881 17.8662 15.1915 16.6551 13.7926C15.8415 12.8504 15.2575 11.8168 14.9184 10.7219C13.8612 7.33029 15.1706 3.74003 16.4302 0.990367L16.3052 0.932755L16.3036 0.931107Z" fill="#100F0D" />
  <path d="M22.7145 1.05458C21.1924 4.22117 20.8343 7.00481 21.6499 9.32978C21.9728 10.2592 22.4988 11.1283 23.2102 11.9122C24.2701 13.0758 25.7371 14.0661 27.4518 14.7773C29.3479 15.5646 31.3986 16.0072 33.3804 16.4351L33.7685 16.5185C34.82 16.7469 35.9401 16.9952 37.0489 17.3178C40.222 18.2377 42.5593 19.6536 43.9964 21.5246C44.3223 21.9495 44.6036 22.4042 44.8325 22.8751C45.5695 24.39 45.7931 26.1142 46.0089 27.7831C46.2284 29.4811 46.4572 31.2383 47.2215 32.8045C47.4735 33.321 47.7862 33.8161 48.1504 34.277C49.2796 35.7016 50.9756 36.8417 52.9252 37.4886C55.0892 38.2053 57.5422 38.3727 60.4247 37.9978L60.4066 37.8611C57.5463 38.2319 55.1126 38.0676 52.9691 37.3579C51.044 36.7207 49.3717 35.5962 48.2586 34.1924C47.8999 33.74 47.594 33.2531 47.3459 32.7448C46.5915 31.198 46.3652 29.4532 46.1469 27.7663C45.9299 26.0876 45.7035 24.351 44.9572 22.8167C44.7241 22.3376 44.4387 21.8761 44.1075 21.4429C42.6527 19.5466 40.292 18.1155 37.0886 17.1872C35.9759 16.8645 34.8528 16.6149 33.7984 16.3865L33.409 16.303C31.4327 15.8764 29.3889 15.4352 27.5039 14.6523C25.8083 13.9494 24.3579 12.9703 23.3119 11.8222C22.6125 11.0522 22.0971 10.1995 21.7797 9.2868C20.9765 6.99918 21.334 4.24984 22.8394 1.11774L22.7145 1.05752L22.7145 1.05458Z" fill="#100F0D" />
  <path d="M29.1254 1.17791C27.918 3.52679 27.6999 5.91303 28.5142 7.89884C28.8164 8.64611 29.2738 9.33395 29.8697 9.94458C30.7788 10.868 31.9606 11.6187 33.3872 12.1774C34.9372 12.7849 36.6055 13.1264 38.22 13.4561L38.5478 13.5224C39.3612 13.6895 40.3054 13.8879 41.2229 14.1426C43.8061 14.8574 45.7298 15.969 46.9399 17.4466C47.2144 17.7813 47.4554 18.1405 47.6573 18.516C48.3345 19.7727 48.5921 21.2227 48.8419 22.6259C49.0733 23.9293 49.3139 25.276 49.8851 26.5013C50.0844 26.9265 50.3249 27.338 50.5999 27.7223C51.4638 28.928 52.7648 29.9502 54.2634 30.5988C56.0918 31.391 58.1181 31.639 60.2857 31.3393L60.2659 31.2025C58.1248 31.4998 56.1221 31.2547 54.3168 30.4725C52.8416 29.8336 51.561 28.8282 50.711 27.6419C50.4399 27.2632 50.2048 26.8599 50.0098 26.4416C49.4453 25.233 49.2073 23.8949 48.9774 22.5993C48.7264 21.1866 48.4659 19.7242 47.7794 18.4495C47.573 18.067 47.3265 17.6996 47.0485 17.358C45.8203 15.8581 43.8723 14.7312 41.2614 14.008C40.3409 13.7533 39.3928 13.5532 38.5777 13.386L38.2502 13.3198C36.6413 12.9915 34.9785 12.6516 33.4393 12.0481C32.0322 11.4968 30.865 10.7557 29.9698 9.84612C29.3849 9.24964 28.9386 8.57561 28.6427 7.84474C27.8448 5.89632 28.0596 3.55155 29.2491 1.23976L29.1268 1.17662L29.1254 1.17791Z" fill="#100F0D" />
  <path d="M35.5376 1.29998C34.6149 2.91748 34.5566 4.85029 35.3796 6.46925C35.6629 7.03305 36.0515 7.5396 36.5317 7.9754C37.2692 8.64085 38.2091 9.17997 39.3238 9.57587C40.528 10.0055 41.8165 10.2442 43.064 10.4756L43.3269 10.5249C43.9917 10.6493 44.7034 10.7878 45.3969 10.966C47.4221 11.4842 48.8891 12.2707 49.885 13.3674C50.1063 13.6117 50.3079 13.8768 50.4836 14.1571C51.1268 15.1818 51.4199 16.3426 51.7321 17.5709C51.9532 18.4459 52.1825 19.3497 52.549 20.1952C52.6951 20.5304 52.8618 20.8573 53.048 21.1647C53.6516 22.1642 54.5563 23.067 55.5973 23.7064C57.0198 24.5803 58.5931 24.9168 60.1462 24.6794L60.1255 24.5427C58.6051 24.7748 57.0638 24.4458 55.6689 23.5884C54.6471 22.9603 53.7586 22.0743 53.1659 21.0942C52.9836 20.7907 52.8181 20.4707 52.6749 20.1398C52.3127 19.3038 52.0846 18.4055 51.8647 17.5364C51.5646 16.3507 51.2541 15.1247 50.5999 14.0823C50.4204 13.7965 50.2146 13.5245 49.9864 13.2728C48.9731 12.1554 47.4826 11.3566 45.431 10.8314C44.7337 10.6528 44.0207 10.513 43.3529 10.3885L43.09 10.3395C41.8481 10.1095 40.5638 9.87059 39.3706 9.44525C38.2723 9.05505 37.3486 8.52587 36.6237 7.87295C36.1556 7.44837 35.7779 6.9553 35.5014 6.40561C34.6989 4.82669 34.7568 2.94355 35.6569 1.36702L35.5376 1.29834L35.5376 1.29998Z" fill="#100F0D" />
  <path d="M41.9511 1.41915C40.9456 2.89968 41.7838 4.98764 43.1965 6.00922C44.5515 6.9875 46.2607 7.24807 47.9131 7.49802L48.1073 7.52748C49.8093 7.78635 51.5756 8.13662 52.8313 9.28916C53.9175 10.2886 54.4356 11.7357 54.9364 13.1339C55.1115 13.6223 55.2918 14.1257 55.4931 14.6045C56.3175 16.5587 58.0334 18.3733 60.0071 18.0193L59.9834 17.8841C58.0857 18.2218 56.4242 16.4551 55.6203 14.552C55.4206 14.0772 55.24 13.5737 55.0665 13.0883C54.5603 11.6734 54.0368 10.2099 52.9247 9.18803C51.6414 8.00911 49.852 7.65276 48.1291 7.39109L47.9349 7.36163C46.2991 7.11313 44.6066 6.85695 43.2789 5.89819C41.9453 4.93513 41.1195 2.89008 42.0664 1.49726L41.9527 1.42047L41.9511 1.41915Z" fill="#100F0D" />
</svg>